<svg xmlns="http://www.w3.org/2000/svg" viewBox="0 0 512 512">
  <rect width="512" height="512" fill="#059669"/>
  <path d="M256 100 C 150 100, 100 200, 100 300 C 100 400, 200 450, 256 450 C 312 450, 412 400, 412 300 C 412 200, 362 100, 256 100 Z" fill="#34D399"/>
  <path d="M256 150 C 200 150, 150 220, 150 300 C 150 380, 220 400, 256 400 C 292 400, 362 380, 362 300 C 362 220, 312 150, 256 150 Z" fill="#059669"/>
  <path d="M256 200 C 230 200, 200 250, 200 300 C 200 350, 240 360, 256 360 C 272 360, 312 350, 312 300 C 312 250, 282 200, 256 200 Z" fill="#6EE7B7"/>
</svg>
